<?xml version="1.0" encoding="utf-8"?>
<!-- Generator: Adobe Illustrator 27.5.0, SVG Export Plug-In . SVG Version: 6.00 Build 0)  -->
<svg version="1.1" xmlns="http://www.w3.org/2000/svg" xmlns:xlink="http://www.w3.org/1999/xlink" x="0px" y="0px"
	 viewBox="0 0 500 500" style="enable-background:new 0 0 500 500;" xml:space="preserve">
<g id="BACKGROUND">
	<rect style="fill:#FFFFFF;" width="500" height="500"/>
</g>
<g id="OBJECTS">
	<g>
		<path style="fill:#D2AA65;" d="M415.946,282.818c0,53.815-43.626,75.847-97.441,75.847s-97.441-22.031-97.441-75.847
			c0-53.815,43.625-119.036,97.441-119.036S415.946,229.003,415.946,282.818z"/>
		<path style="fill:#E8B771;" d="M372.98,263.137c0,30.085-24.39,54.475-54.476,54.475c-30.085,0-54.475-24.39-54.475-54.475
			c0-30.086,24.39-54.475,54.475-54.475C348.591,208.662,372.98,233.051,372.98,263.137z"/>
		<path style="fill:#D2AA65;" d="M364.241,115.368c-3.853-3.029-9.173-3.409-13.598-1.301l-7.431,3.539
			c-3.93,1.871-8.526,1.699-12.305-0.46l-3.936-4.254c-4.566-4.936-12.369-4.936-16.935,0l-3.936,4.254
			c-3.778,2.159-8.375,2.331-12.305,0.46l-7.431-3.539c-4.426-2.107-9.744-1.728-13.598,1.301
			c-5.296,4.164-6.383,11.583-2.744,17.041l30.045,45.068l18.435-13.694l18.436,13.694l30.045-45.068
			C370.624,126.951,369.537,119.531,364.241,115.368z"/>
		<path style="fill:#7F705A;" d="M348.923,172.21h-61.446c-2.095,0-3.809-1.714-3.809-3.809l0,0c0-2.094,1.714-3.808,3.809-3.808
			h61.446c2.095,0,3.809,1.714,3.809,3.808l0,0C352.731,170.496,351.018,172.21,348.923,172.21z"/>
		<path style="fill:#7F705A;" d="M348.923,164.847h-61.446c-2.095,0-3.809-1.714-3.809-3.809l0,0c0-2.095,1.714-3.808,3.809-3.808
			h61.446c2.095,0,3.809,1.713,3.809,3.808l0,0C352.731,163.133,351.018,164.847,348.923,164.847z"/>
		<path style="fill:#645848;" d="M343.099,240.927v-0.742c0-1.617-1.311-2.927-2.927-2.927H302.45c-1.119,0-2.025,0.907-2.025,2.025
			v6.368c0,1.339,1.085,2.425,2.425,2.425h0.502c4.357,0,7.574,0.64,9.651,1.917c1.213,0.747,2.061,1.799,2.565,3.139h-12.217
			c-1.616,0-2.927,1.311-2.927,2.927v1.171c0,1.616,1.311,2.927,2.927,2.927h12.1c-0.507,1.23-1.294,2.234-2.384,2.997
			c-2.033,1.424-5.186,2.135-9.455,2.135h-0.262c-1.616,0-2.927,1.311-2.927,2.927v5.127c0,1.616,1.311,2.927,2.927,2.927h3.094
			l14.349,23.065c0.534,0.858,1.474,1.38,2.485,1.38h7.808c2.351,0,3.746-2.623,2.424-4.566c-3.438-5.054-8.64-12.783-15.605-23.19
			c3.776-1.655,6.695-3.943,8.759-6.863c1.284-1.818,2.168-3.798,2.652-5.938h10.855c1.616,0,2.927-1.311,2.927-2.927v-1.171
			c0-1.616-1.311-2.927-2.927-2.927h-10.596c-0.428-3.758-1.702-6.849-3.819-9.277h14.415
			C341.788,243.855,343.099,242.544,343.099,240.927z"/>
		<path style="fill:#7F705A;" d="M340.053,228.421v-61.446c0-2.095,1.714-3.808,3.809-3.808l0,0c2.095,0,3.809,1.713,3.809,3.808
			v61.446c0,2.094-1.714,3.808-3.809,3.808l0,0C341.767,232.229,340.053,230.515,340.053,228.421z"/>
		<path style="fill:#7F705A;" d="M327.833,200.353v-35.822c0-2.095,1.714-3.809,3.809-3.809l0,0c2.095,0,3.809,1.714,3.809,3.809
			v35.822c0,2.095-1.714,3.809-3.809,3.809l0,0C329.547,204.162,327.833,202.448,327.833,200.353z"/>
	</g>
	<g>
		<g>
			<path style="fill:#E4B363;" d="M75.598,260.119c-8.329,17.514-13.104,36.546-13.104,54.336c0,53.815,43.626,75.847,97.441,75.847
				c53.816,0,97.442-22.031,97.442-75.847c0-17.791-4.784-36.821-13.114-54.336H75.598z"/>
			<path style="fill:#F6C378;" d="M117.92,260.119c-7.777,9.418-12.46,21.486-12.46,34.654c0,30.086,24.389,54.475,54.475,54.475
				c30.085,0,54.475-24.389,54.475-54.475c0-13.168-4.682-25.236-12.46-34.654H117.92z"/>
		</g>
		<path style="fill:#645848;" d="M184.529,272.565v-0.743c0-1.616-1.311-2.927-2.927-2.927H143.88c-1.118,0-2.025,0.907-2.025,2.025
			v6.368c0,1.339,1.085,2.425,2.425,2.425h0.502c4.357,0,7.575,0.64,9.651,1.917c1.212,0.747,2.06,1.799,2.565,3.139h-12.216
			c-1.617,0-2.927,1.311-2.927,2.927v1.171c0,1.616,1.31,2.927,2.927,2.927h12.1c-0.506,1.23-1.294,2.234-2.383,2.997
			c-2.033,1.424-5.185,2.135-9.455,2.135h-0.262c-1.617,0-2.927,1.311-2.927,2.927v5.127c0,1.616,1.31,2.927,2.927,2.927h3.094
			l14.349,23.065c0.534,0.858,1.474,1.381,2.485,1.381h7.808c2.35,0,3.746-2.624,2.424-4.567c-3.438-5.054-8.64-12.783-15.605-23.19
			c3.775-1.655,6.695-3.943,8.758-6.862c1.285-1.819,2.168-3.798,2.653-5.938h10.855c1.616,0,2.927-1.311,2.927-2.927v-1.171
			c0-1.616-1.311-2.927-2.927-2.927h-10.596c-0.427-3.758-1.702-6.849-3.818-9.277h14.415
			C183.218,275.491,184.529,274.181,184.529,272.565z"/>
		<path style="fill:#EECA9B;" d="M249.722,264.749c-58.904,14.092-120.307,14.092-179.211,0c-6.669-1.593-10.695-8.066-8.997-14.13
			c0.057-0.207,0.113-0.414,0.17-0.621c1.7-6.07,8.118-9.633,14.306-8.156c55.302,13.23,112.95,13.23,168.251,0
			c6.189-1.477,12.606,2.086,14.307,8.156c0.057,0.207,0.113,0.414,0.17,0.621C260.418,256.683,256.391,263.156,249.722,264.749z"/>
	</g>
	<g>
		<g>
			<path style="opacity:0.32;fill:#998329;" d="M110.85,243.648h-1.401c-2.959-4.125-9.791-7.013-17.751-7.013
				c-7.96,0-14.793,2.889-17.752,7.013h-1.401l-0.166,4.576c0,6.4,8.649,11.589,19.318,11.589c10.669,0,19.318-5.19,19.318-11.589
				L110.85,243.648z"/>
			<path style="fill:#F1B633;" d="M110.354,240.672h-1.401c-2.959-4.125-9.791-7.013-17.751-7.013
				c-7.96,0-14.793,2.889-17.752,7.013h-1.401l-0.166,4.576c0,6.401,8.649,11.589,19.318,11.589
				c10.669,0,19.318-5.189,19.318-11.589L110.354,240.672z"/>
			<path style="fill:#F1B633;" d="M91.201,229.182c10.578,0,19.153,5.144,19.153,11.49c0,6.345-8.575,11.489-19.153,11.489
				c-10.578,0-19.153-5.144-19.153-11.489C72.048,234.326,80.623,229.182,91.201,229.182z"/>
			<ellipse style="fill:#F2CD30;" cx="91.201" cy="240.954" rx="19.171" ry="12.561"/>
			<ellipse style="fill:#EAA00E;" cx="91.201" cy="240.725" rx="14.961" ry="9.623"/>
			<ellipse style="fill:#F1B633;" cx="92.112" cy="241.311" rx="14.05" ry="9.038"/>
		</g>
		<g>
			<path style="opacity:0.32;fill:#998329;" d="M167.757,233.966l-1.336,0.555c-4.691-3.334-12.515-3.784-20.102-0.632
				c-7.587,3.151-12.789,9.013-13.737,14.69l-1.335,0.555l1.918,5.064c2.905,6.992,13.503,9.236,23.672,5.012
				c10.169-4.225,16.058-13.318,13.153-20.31L167.757,233.966z"/>
			<path style="fill:#F1B633;" d="M166.061,234.701l-1.294,0.538c-4.306-2.654-11.719-2.686-19.07,0.367
				c-7.351,3.054-12.559,8.329-13.716,13.253l-1.294,0.538l1.593,4.268c2.443,5.88,12.411,7.328,22.263,3.235
				c9.853-4.094,15.86-12.178,13.417-18.059L166.061,234.701z"/>
			<path style="fill:#F1B633;" d="M143.989,231.493c9.768-4.058,19.65-2.622,22.072,3.208c2.422,5.83-3.534,13.845-13.302,17.903
				c-9.769,4.059-19.65,2.622-22.072-3.207C128.266,243.567,134.221,235.551,143.989,231.493z"/>
			<path style="fill:#F2CD30;" d="M143.688,230.769c9.778-4.062,19.851-2.189,22.498,4.184c2.648,6.373-3.133,14.832-12.911,18.895
				c-9.778,4.062-19.851,2.188-22.498-4.185C128.13,243.29,133.911,234.831,143.688,230.769z"/>
			<path style="fill:#EAA00E;" d="M144.722,233.257c7.631-3.17,15.461-1.782,17.489,3.101c2.028,4.883-2.513,11.411-10.143,14.581
				c-7.63,3.17-15.46,1.781-17.489-3.101C132.55,242.955,137.091,236.427,144.722,233.257z"/>
			<path style="fill:#F1B633;" d="M146.01,233.984c7.166-2.977,14.52-1.673,16.424,2.913c1.905,4.585-2.36,10.716-9.526,13.693
				c-7.166,2.977-14.52,1.673-16.424-2.913C134.58,243.091,138.844,236.961,146.01,233.984z"/>
		</g>
		<g>
			<path style="opacity:0.32;fill:#998329;" d="M190.614,214.186l-1.371,0.291c-3.744-3.401-11.025-4.797-18.812-3.148
				c-7.787,1.648-13.877,5.875-15.921,10.502l-1.371,0.291l0.781,4.488c1.319,6.229,10.85,9.487,21.288,7.277
				c10.438-2.21,17.83-9.051,16.512-15.28L190.614,214.186z"/>
			<path style="fill:#F1B633;" d="M189.768,212.493l-1.371,0.29c-3.744-3.401-11.024-4.797-18.812-3.148
				c-7.787,1.648-13.877,5.875-15.921,10.502l-1.371,0.29l0.781,4.488c1.319,6.229,10.85,9.487,21.288,7.277
				c10.438-2.21,17.831-9.051,16.512-15.28L189.768,212.493z"/>
			<path style="fill:#F1B633;" d="M168.663,205.278c10.348-2.191,19.797,1.04,21.104,7.215c1.308,6.176-6.021,12.958-16.37,15.149
				c-10.349,2.191-19.797-1.04-21.105-7.215C150.985,214.251,158.314,207.469,168.663,205.278z"/>
			<path style="fill:#F2CD30;" d="M168.5,204.511c10.358-2.193,19.914,1.502,21.344,8.254c1.429,6.751-5.809,14.002-16.167,16.195
				c-10.358,2.193-19.914-1.502-21.344-8.253C150.904,213.955,158.142,206.704,168.5,204.511z"/>
			<path style="fill:#EAA00E;" d="M169.059,207.146c8.083-1.711,15.524,1.095,16.62,6.267c1.095,5.173-4.57,10.753-12.654,12.465
				c-8.083,1.712-15.524-1.094-16.62-6.267C155.31,214.439,160.975,208.858,169.059,207.146z"/>
			<path style="fill:#F1B633;" d="M170.191,208.098c7.592-1.607,14.58,1.027,15.608,5.885s-4.292,10.099-11.883,11.706
				c-7.591,1.607-14.579-1.028-15.608-5.886C157.279,214.946,162.6,209.705,170.191,208.098z"/>
		</g>
		<g>
			<path style="opacity:0.32;fill:#998329;" d="M126.213,212.601l-1.237,0.613c-4.537-2.086-11.92-1.465-18.951,2.017
				c-7.03,3.482-11.718,8.839-12.408,13.514l-1.237,0.613l1.988,3.824c2.986,5.247,13.045,5.716,22.469,1.049
				c9.423-4.667,14.643-12.704,11.657-17.95L126.213,212.601z"/>
			<path style="fill:#F1B633;" d="M124.725,210.616l-1.237,0.613c-4.537-2.087-11.92-1.466-18.951,2.016
				c-7.03,3.482-11.718,8.839-12.408,13.514l-1.237,0.613l1.988,3.824c2.986,5.247,13.045,5.716,22.469,1.049
				c9.423-4.667,14.643-12.704,11.657-17.95L124.725,210.616z"/>
			<path style="fill:#F1B633;" d="M102.449,209.576c9.343-4.627,19.316-4.161,22.276,1.04c2.96,5.202-2.214,13.169-11.557,17.796
				c-9.343,4.627-19.316,4.162-22.276-1.04C87.932,222.171,93.106,214.204,102.449,209.576z"/>
			<path style="fill:#F2CD30;" d="M102.081,208.93c9.352-4.631,19.556-3.776,22.792,1.91c3.236,5.686-1.722,14.051-11.074,18.682
				c-9.352,4.632-19.556,3.777-22.792-1.91C87.771,221.926,92.729,213.561,102.081,208.93z"/>
			<path style="fill:#EAA00E;" d="M103.345,211.15c7.298-3.615,15.224-3.013,17.703,1.344c2.479,4.357-1.427,10.819-8.725,14.434
				c-7.298,3.614-15.225,3.012-17.704-1.344C92.14,221.226,96.046,214.764,103.345,211.15z"/>
			<path style="fill:#F1B633;" d="M104.696,211.712c6.853-3.395,14.297-2.83,16.625,1.262c2.328,4.091-1.34,10.16-8.194,13.554
				c-6.854,3.395-14.297,2.83-16.625-1.262C94.173,221.175,97.842,215.106,104.696,211.712z"/>
		</g>
		<g>
			<path style="opacity:0.32;fill:#998329;" d="M164.616,208.087l-1.381,0.017c-3.185-3.847-10.108-6.485-17.953-6.393
				c-7.845,0.092-14.391,2.889-17.038,6.804l-1.381,0.016l0.135,4.307c0.418,6.022,9.281,10.804,19.796,10.68
				c10.516-0.124,18.701-5.106,18.284-11.128L164.616,208.087z"/>
			<path style="fill:#F1B633;" d="M164.12,206.103l-1.381,0.017c-3.185-3.847-10.108-6.485-17.953-6.393
				c-7.845,0.093-14.391,2.89-17.038,6.805l-1.381,0.016l0.135,4.308c0.418,6.022,9.281,10.803,19.796,10.68
				c10.516-0.124,18.701-5.106,18.284-11.128L164.12,206.103z"/>
			<path style="fill:#F1B633;" d="M144.493,195.515c10.425-0.123,19.212,4.618,19.626,10.588c0.414,5.971-7.701,10.91-18.126,11.033
				c-10.425,0.123-19.212-4.618-19.626-10.588C125.953,200.577,134.068,195.638,144.493,195.515z"/>
			<path style="fill:#F2CD30;" d="M144.442,194.773c10.435-0.122,19.262,5.069,19.714,11.596c0.453,6.527-7.64,11.917-18.075,12.04
				c-10.435,0.122-19.262-5.069-19.714-11.596C125.914,200.287,134.007,194.896,144.442,194.773z"/>
			<path style="fill:#EAA00E;" d="M144.619,197.321c8.143-0.096,15.026,3.88,15.374,8.881c0.347,5.001-5.974,9.132-14.117,9.228
				c-8.144,0.096-15.026-3.88-15.374-8.881C130.154,201.548,136.475,197.417,144.619,197.321z"/>
			<path style="fill:#F1B633;" d="M145.593,198.413c7.648-0.09,14.112,3.644,14.438,8.34c0.326,4.696-5.61,8.576-13.258,8.667
				c-7.647,0.09-14.111-3.645-14.437-8.341C132.009,202.383,137.945,198.503,145.593,198.413z"/>
		</g>
		<g>
			<path style="opacity:0.32;fill:#998329;" d="M251.544,241.991l-1.204-0.59c-0.562-5.286-5.046-10.993-11.886-14.344
				c-6.839-3.352-14.097-3.399-18.619-0.604l-1.204-0.59l-2.339,4.413c-3.072,6.27,1.868,14.995,11.035,19.487
				c9.168,4.493,19.089,3.051,22.162-3.219L251.544,241.991z"/>
			<path style="fill:#F1B633;" d="M253.388,242.11l-1.258-0.617c-0.852-4.986-5.723-10.574-12.871-14.076
				c-7.148-3.503-14.548-3.929-19.011-1.546l-1.258-0.617l-2.152,4.015c-2.802,5.718,2.694,14.159,12.274,18.854
				c9.581,4.695,19.619,3.866,22.42-1.852L253.388,242.11z"/>
			<path style="fill:#F1B633;" d="M241.219,223.419c9.499,4.655,14.947,13.023,12.169,18.692c-2.778,5.668-12.73,6.49-22.228,1.835
				c-9.499-4.654-14.947-13.023-12.17-18.691C221.768,219.586,231.72,218.764,241.219,223.419z"/>
			<path style="fill:#F2CD30;" d="M241.564,222.714c9.507,4.659,14.753,13.459,11.717,19.656
				c-3.037,6.197-13.207,7.443-22.714,2.785c-9.508-4.659-14.753-13.46-11.717-19.657
				C221.887,219.302,232.056,218.055,241.564,222.714z"/>
			<path style="fill:#EAA00E;" d="M240.378,225.133c7.42,3.636,11.548,10.433,9.222,15.18c-2.327,4.748-10.228,5.649-17.648,2.013
				c-7.42-3.636-11.549-10.432-9.222-15.18C225.058,222.399,232.958,221.497,240.378,225.133z"/>
			<path style="fill:#F1B633;" d="M240.684,226.581c6.968,3.415,10.846,9.797,8.66,14.256c-2.185,4.459-9.605,5.306-16.573,1.891
				c-6.968-3.415-10.846-9.798-8.661-14.256C226.295,224.013,233.715,223.167,240.684,226.581z"/>
		</g>
		<g>
			<path style="fill:#F1B633;" d="M226.854,218.374l-1.4,0.038c-3.07-4.02-9.98-6.706-17.937-6.487
				c-7.957,0.218-14.708,3.278-17.553,7.461l-1.401,0.039l-0.041,4.555c0.175,6.365,8.962,11.288,19.627,10.995
				c10.665-0.293,19.17-5.689,18.995-12.054L226.854,218.374z"/>
			<path style="fill:#F1B633;" d="M207.395,207.474c10.574-0.291,19.286,4.59,19.459,10.9c0.173,6.311-8.258,11.661-18.832,11.951
				c-10.574,0.29-19.286-4.59-19.459-10.9C188.39,213.114,196.821,207.764,207.395,207.474z"/>
			<path style="fill:#F2CD30;" d="M207.373,206.69c10.584-0.29,19.317,5.066,19.507,11.965c0.189,6.898-8.237,12.726-18.821,13.016
				s-19.317-5.066-19.507-11.965C188.363,212.808,196.79,206.98,207.373,206.69z"/>
			<path style="fill:#EAA00E;" d="M207.448,209.383c8.26-0.227,15.073,3.874,15.218,9.16c0.145,5.285-6.433,9.753-14.693,9.98
				c-8.26,0.226-15.073-3.874-15.218-9.16C192.609,214.078,199.188,209.609,207.448,209.383z"/>
			<path style="fill:#F1B633;" d="M208.39,210.523c7.757-0.213,14.155,3.639,14.292,8.602c0.136,4.963-6.042,9.16-13.798,9.373
				c-7.757,0.213-14.156-3.638-14.292-8.602C194.456,214.932,200.633,210.736,208.39,210.523z"/>
		</g>
		<g>
			<path style="opacity:0.32;fill:#998329;" d="M223.533,241.868l-1.39-0.179c-2.408-4.448-8.817-8.173-16.712-9.193
				c-7.895-1.02-15.04,0.955-18.499,4.645l-1.39-0.179l-0.748,4.493c-0.815,6.315,7.102,12.542,17.683,13.908
				c10.581,1.366,19.82-2.645,20.636-8.96L223.533,241.868z"/>
			<path style="fill:#F1B633;" d="M223.533,238.892l-1.39-0.18c-2.408-4.448-8.817-8.173-16.712-9.193
				c-7.895-1.02-15.04,0.956-18.499,4.646l-1.39-0.179l-0.748,4.493c-0.815,6.315,7.102,12.542,17.683,13.908
				c10.581,1.366,19.82-2.645,20.636-8.96L223.533,238.892z"/>
			<path style="fill:#F1B633;" d="M206.002,225.102c10.491,1.355,18.339,7.528,17.531,13.789c-0.808,6.26-9.968,10.237-20.458,8.882
				c-10.491-1.355-18.34-7.528-17.531-13.788C186.352,227.725,195.512,223.748,206.002,225.102z"/>
			<path style="fill:#F2CD30;" d="M206.103,224.325c10.501,1.356,18.297,8.003,17.413,14.848
				c-0.884,6.844-10.113,11.293-20.613,9.937c-10.501-1.356-18.297-8.004-17.413-14.848
				C186.373,227.417,195.602,222.969,206.103,224.325z"/>
			<path style="fill:#EAA00E;" d="M205.758,226.997c8.195,1.058,14.289,6.167,13.612,11.411c-0.677,5.244-7.87,8.637-16.064,7.579
				c-8.195-1.058-14.289-6.167-13.612-11.411C190.371,229.331,197.563,225.938,205.758,226.997z"/>
			<path style="fill:#F1B633;" d="M206.512,228.269c7.696,0.994,13.419,5.792,12.783,10.716c-0.636,4.924-7.39,8.111-15.086,7.117
				c-7.696-0.994-13.419-5.792-12.783-10.716C192.062,230.462,198.816,227.275,206.512,228.269z"/>
		</g>
		<g>
			<path style="opacity:0.32;fill:#998329;" d="M139.267,247.411c0,8.909-7.222,16.13-16.131,16.13s-16.13-7.222-16.13-16.13
				c0-8.909,7.222-16.13,16.13-16.13S139.267,238.502,139.267,247.411z"/>
			<path style="fill:#F2CD30;" d="M136.948,244.631c0,8.909-7.222,16.13-16.131,16.13s-16.13-7.222-16.13-16.13
				c0-8.909,7.222-16.131,16.13-16.131S136.948,235.723,136.948,244.631z"/>
			<path style="fill:#EAA00E;" d="M133.405,244.631c0,6.953-5.636,12.588-12.588,12.588c-6.952,0-12.588-5.636-12.588-12.588
				c0-6.952,5.636-12.588,12.588-12.588C127.769,232.043,133.405,237.679,133.405,244.631z"/>
			<path style="fill:#F1B633;" d="M131.873,245.398c0,6.529-5.293,11.822-11.822,11.822c-6.529,0-11.822-5.293-11.822-11.822
				c0-6.529,5.293-11.822,11.822-11.822C126.58,233.576,131.873,238.869,131.873,245.398z"/>
		</g>
		<g>
			<path style="opacity:0.32;fill:#998329;" d="M193.03,234.33c4.103,7.908,1.019,17.645-6.889,21.747
				c-7.907,4.104-17.644,1.02-21.747-6.888c-4.103-7.907-1.019-17.644,6.888-21.747C179.19,223.339,188.926,226.423,193.03,234.33z"
				/>
			<path style="fill:#F2CD30;" d="M189.691,232.931c4.103,7.908,1.019,17.644-6.889,21.747c-7.907,4.103-17.644,1.019-21.747-6.889
				c-4.103-7.907-1.019-17.644,6.888-21.747C175.851,221.939,185.587,225.024,189.691,232.931z"/>
			<path style="fill:#EAA00E;" d="M186.546,234.563c3.202,6.171,0.795,13.769-5.376,16.971c-6.171,3.202-13.77,0.796-16.972-5.375
				c-3.202-6.171-0.795-13.77,5.376-16.972C175.746,225.985,183.344,228.392,186.546,234.563z"/>
			<path style="fill:#F1B633;" d="M185.539,235.949c3.007,5.795,0.747,12.931-5.048,15.938c-5.795,3.007-12.931,0.746-15.938-5.049
				c-3.007-5.795-0.747-12.931,5.048-15.938C175.396,227.894,182.532,230.154,185.539,235.949z"/>
		</g>
		<g>
			<path style="opacity:0.32;fill:#998329;" d="M146.292,239.743c-7.925,4.068-17.648,0.942-21.717-6.983
				c-4.069-7.925-0.942-17.648,6.983-21.717c7.925-4.069,17.648-0.942,21.717,6.983
				C157.344,225.951,154.218,235.674,146.292,239.743z"/>
			<path style="fill:#F2CD30;" d="M145.3,237.263c-7.925,4.068-17.648,0.942-21.717-6.983c-4.069-7.925-0.942-17.648,6.983-21.717
				c7.925-4.069,17.648-0.942,21.717,6.983C156.352,223.471,153.226,233.194,145.3,237.263z"/>
			<path style="fill:#EAA00E;" d="M143.682,234.111c-6.185,3.175-13.772,0.735-16.948-5.45c-3.175-6.185-0.735-13.772,5.45-16.948
				c6.185-3.175,13.772-0.735,16.948,5.449C152.307,223.348,149.867,230.936,143.682,234.111z"/>
			<path style="fill:#F1B633;" d="M142.3,233.098c-5.808,2.982-12.934,0.69-15.916-5.118c-2.982-5.809-0.691-12.934,5.118-15.916
				c5.809-2.982,12.934-0.691,15.916,5.118C150.4,222.99,148.109,230.116,142.3,233.098z"/>
		</g>
	</g>
	<g>
		<polygon style="fill:#58A967;" points="303.814,283.04 302.499,285.807 257.63,285.807 257.63,380.207 254.535,386.719 
			257.63,389.484 306.909,389.484 306.909,285.807 		"/>
		
			<rect x="227.335" y="310.24" transform="matrix(-1.836970e-16 1 -1 -1.836970e-16 614.0538 55.7051)" style="fill:#58C670;" width="103.679" height="49.278"/>
		<path style="fill:#A4E894;" d="M289.634,379.69c0-5.108,3.772-7.78,7.724-8.025v-73.857h-0.572c-2.198,0-4.331-0.884-5.885-2.438
			c-1.551-1.551-2.434-3.679-2.438-5.872h-18.529c0.014,0.19,0.028,0.381,0.028,0.572c0,2.198-0.884,4.331-2.438,5.885
			c-1.554,1.554-3.686,2.438-5.885,2.438h-0.586c-0.02,0-0.041-0.003-0.061-0.003v73.253c4.182-0.026,8.384,2.654,8.384,8.048
			c0,0.197-0.017,0.383-0.027,0.572h20.313C289.651,380.072,289.634,379.887,289.634,379.69z"/>
		<circle style="fill:#58C670;" cx="279.175" cy="335.55" r="14.592"/>
		<path style="fill:#DDFAD9;" d="M288.153,342.378h0.237c0.518,0,0.936-0.419,0.936-0.936V329.37c0-0.357-0.29-0.648-0.647-0.648
			h-2.038c-0.429,0-0.775,0.348-0.775,0.776v0.16c0,1.395-0.205,2.425-0.614,3.089c-0.238,0.388-0.575,0.659-1.004,0.821v-3.91
			c0-0.517-0.42-0.936-0.936-0.936h-0.375c-0.518,0-0.936,0.42-0.936,0.936v3.873c-0.394-0.162-0.715-0.414-0.959-0.763
			c-0.455-0.651-0.684-1.659-0.684-3.026v-0.084c0-0.517-0.419-0.936-0.936-0.936h-1.641c-0.517,0-0.937,0.42-0.937,0.936v0.99
			l-7.381,4.592c-0.274,0.171-0.441,0.472-0.441,0.795v2.499c0,0.752,0.84,1.198,1.461,0.775c1.617-1.1,4.091-2.765,7.421-4.993
			c0.53,1.208,1.263,2.143,2.196,2.803c0.582,0.41,1.216,0.693,1.9,0.849v3.474c0,0.518,0.419,0.936,0.936,0.936h0.375
			c0.517,0,0.936-0.419,0.936-0.936v-3.391c1.202-0.137,2.191-0.545,2.969-1.222v4.612
			C287.217,341.959,287.636,342.378,288.153,342.378z"/>
	</g>
	<g>
		<g>
			<rect x="308.386" y="323.081" style="fill:#58C670;" width="113.366" height="8.811"/>
			<rect x="308.386" y="329.82" style="fill:#58A967;" width="113.366" height="2.071"/>
			<rect x="403.458" y="323.081" style="fill:#4DB761;" width="18.294" height="8.811"/>
			<rect x="403.458" y="329.82" style="fill:#4C9B57;" width="18.294" height="2.071"/>
		</g>
		<g>
			<rect x="308.386" y="331.286" style="fill:#58C670;" width="113.366" height="8.811"/>
			<rect x="308.386" y="338.025" style="fill:#58A967;" width="113.366" height="2.071"/>
			<rect x="403.458" y="331.286" style="fill:#4DB761;" width="18.294" height="8.811"/>
			<rect x="403.458" y="338.025" style="fill:#4C9B57;" width="18.294" height="2.071"/>
		</g>
		<g>
			<rect x="308.386" y="339.491" style="fill:#58C670;" width="113.366" height="8.811"/>
			<rect x="308.386" y="346.23" style="fill:#58A967;" width="113.366" height="2.071"/>
			<rect x="403.458" y="339.491" style="fill:#4DB761;" width="18.294" height="8.811"/>
			<rect x="403.458" y="346.23" style="fill:#4C9B57;" width="18.294" height="2.071"/>
		</g>
		<g>
			<rect x="308.386" y="347.696" style="fill:#58C670;" width="113.366" height="8.811"/>
			<rect x="308.386" y="354.435" style="fill:#58A967;" width="113.366" height="2.071"/>
			<rect x="403.458" y="347.696" style="fill:#4DB761;" width="18.294" height="8.811"/>
			<rect x="403.458" y="354.435" style="fill:#4C9B57;" width="18.294" height="2.071"/>
		</g>
		<rect x="347.884" y="322.942" style="fill:#A4E894;" width="9.913" height="33.537"/>
	</g>
	<g>
		<g>
			
				<rect x="325.508" y="356.481" transform="matrix(-1 -1.224647e-16 1.224647e-16 -1 764.3818 721.7734)" style="fill:#5CD673;" width="113.366" height="8.811"/>
			
				<rect x="325.508" y="363.221" transform="matrix(-1 -1.224647e-16 1.224647e-16 -1 764.3818 728.5127)" style="fill:#58A967;" width="113.366" height="2.071"/>
			
				<rect x="325.508" y="356.481" transform="matrix(-1 -1.224647e-16 1.224647e-16 -1 669.3096 721.7734)" style="fill:#4AC65D;" width="18.294" height="8.811"/>
			
				<rect x="325.508" y="363.221" transform="matrix(-1 -1.224647e-16 1.224647e-16 -1 669.3096 728.5127)" style="fill:#4C9B57;" width="18.294" height="2.071"/>
		</g>
		<g>
			
				<rect x="325.508" y="364.686" transform="matrix(-1 -1.224647e-16 1.224647e-16 -1 764.3818 738.1836)" style="fill:#5CD673;" width="113.366" height="8.811"/>
			
				<rect x="325.508" y="371.427" transform="matrix(-1 -1.224647e-16 1.224647e-16 -1 764.3818 744.9239)" style="fill:#58A967;" width="113.366" height="2.07"/>
			
				<rect x="325.508" y="364.686" transform="matrix(-1 -1.224647e-16 1.224647e-16 -1 669.3096 738.1836)" style="fill:#4AC65D;" width="18.294" height="8.811"/>
			
				<rect x="325.508" y="371.427" transform="matrix(-1 -1.224647e-16 1.224647e-16 -1 669.3096 744.9239)" style="fill:#4C9B57;" width="18.294" height="2.07"/>
		</g>
		<g>
			
				<rect x="325.508" y="372.892" transform="matrix(-1 -1.224647e-16 1.224647e-16 -1 764.3818 754.5937)" style="fill:#5CD673;" width="113.366" height="8.811"/>
			
				<rect x="325.508" y="379.632" transform="matrix(-1 -1.224647e-16 1.224647e-16 -1 764.3818 761.3339)" style="fill:#58A967;" width="113.366" height="2.07"/>
			
				<rect x="325.508" y="372.892" transform="matrix(-1 -1.224647e-16 1.224647e-16 -1 669.3096 754.5937)" style="fill:#4AC65D;" width="18.294" height="8.811"/>
			
				<rect x="325.508" y="379.632" transform="matrix(-1 -1.224647e-16 1.224647e-16 -1 669.3096 761.3339)" style="fill:#4C9B57;" width="18.294" height="2.07"/>
		</g>
		<g>
			
				<rect x="325.508" y="381.097" transform="matrix(-1 -1.224647e-16 1.224647e-16 -1 764.3818 771.0039)" style="fill:#5CD673;" width="113.366" height="8.811"/>
			
				<rect x="325.508" y="387.837" transform="matrix(-1 -1.224647e-16 1.224647e-16 -1 764.3818 777.7441)" style="fill:#58A967;" width="113.366" height="2.07"/>
			
				<rect x="325.508" y="381.097" transform="matrix(-1 -1.224647e-16 1.224647e-16 -1 669.3096 771.0039)" style="fill:#4AC65D;" width="18.294" height="8.811"/>
			
				<rect x="325.508" y="387.837" transform="matrix(-1 -1.224647e-16 1.224647e-16 -1 669.3096 777.7441)" style="fill:#4C9B57;" width="18.294" height="2.07"/>
		</g>
		
			<rect x="389.463" y="356.343" transform="matrix(-1 -1.224647e-16 1.224647e-16 -1 788.8389 746.2227)" style="fill:#A4E894;" width="9.913" height="33.537"/>
	</g>
	<g>
		<g>
			
				<rect x="103.145" y="356.481" transform="matrix(-1 -1.224647e-16 1.224647e-16 -1 319.6562 721.7734)" style="fill:#5CD673;" width="113.366" height="8.811"/>
			
				<rect x="103.145" y="363.221" transform="matrix(-1 -1.224647e-16 1.224647e-16 -1 319.6562 728.5127)" style="fill:#58A967;" width="113.366" height="2.071"/>
			
				<rect x="103.145" y="356.481" transform="matrix(-1 -1.224647e-16 1.224647e-16 -1 224.5835 721.7734)" style="fill:#4AC65D;" width="18.293" height="8.811"/>
			
				<rect x="103.145" y="363.221" transform="matrix(-1 -1.224647e-16 1.224647e-16 -1 224.5835 728.5127)" style="fill:#4C9B57;" width="18.293" height="2.071"/>
		</g>
		<g>
			
				<rect x="103.145" y="364.686" transform="matrix(-1 -1.224647e-16 1.224647e-16 -1 319.6562 738.1836)" style="fill:#5CD673;" width="113.366" height="8.811"/>
			
				<rect x="103.145" y="371.427" transform="matrix(-1 -1.224647e-16 1.224647e-16 -1 319.6562 744.9239)" style="fill:#58A967;" width="113.366" height="2.07"/>
			
				<rect x="103.145" y="364.686" transform="matrix(-1 -1.224647e-16 1.224647e-16 -1 224.5835 738.1836)" style="fill:#4AC65D;" width="18.293" height="8.811"/>
			
				<rect x="103.145" y="371.427" transform="matrix(-1 -1.224647e-16 1.224647e-16 -1 224.5835 744.9239)" style="fill:#4C9B57;" width="18.293" height="2.07"/>
		</g>
		<g>
			
				<rect x="103.145" y="372.892" transform="matrix(-1 -1.224647e-16 1.224647e-16 -1 319.6562 754.5937)" style="fill:#5CD673;" width="113.366" height="8.811"/>
			
				<rect x="103.145" y="379.632" transform="matrix(-1 -1.224647e-16 1.224647e-16 -1 319.6562 761.3339)" style="fill:#58A967;" width="113.366" height="2.07"/>
			
				<rect x="103.145" y="372.892" transform="matrix(-1 -1.224647e-16 1.224647e-16 -1 224.5835 754.5937)" style="fill:#4AC65D;" width="18.293" height="8.811"/>
			
				<rect x="103.145" y="379.632" transform="matrix(-1 -1.224647e-16 1.224647e-16 -1 224.5835 761.3339)" style="fill:#4C9B57;" width="18.293" height="2.07"/>
		</g>
		<g>
			
				<rect x="103.145" y="381.097" transform="matrix(-1 -1.224647e-16 1.224647e-16 -1 319.6562 771.0039)" style="fill:#5CD673;" width="113.366" height="8.811"/>
			
				<rect x="103.145" y="387.837" transform="matrix(-1 -1.224647e-16 1.224647e-16 -1 319.6562 777.7441)" style="fill:#58A967;" width="113.366" height="2.07"/>
			
				<rect x="103.145" y="381.097" transform="matrix(-1 -1.224647e-16 1.224647e-16 -1 224.5835 771.0039)" style="fill:#4AC65D;" width="18.293" height="8.811"/>
			
				<rect x="103.145" y="387.837" transform="matrix(-1 -1.224647e-16 1.224647e-16 -1 224.5835 777.7441)" style="fill:#4C9B57;" width="18.293" height="2.07"/>
		</g>
		
			<rect x="167.1" y="356.343" transform="matrix(-1 -1.224647e-16 1.224647e-16 -1 344.1128 746.2227)" style="fill:#A4E894;" width="9.913" height="33.537"/>
	</g>
	<g>
		<g>
			<path style="fill:#F1B633;" d="M253.351,389.907h-38.902c-1.075,0-1.947-0.871-1.947-1.946v-3.73
				c0-1.074,0.871-1.946,1.947-1.946h38.902c1.075,0,1.946,0.872,1.946,1.946v3.73C255.297,389.036,254.426,389.907,253.351,389.907
				z"/>
			<path style="fill:#FAC55D;" d="M253.68,382.284h-7.206v7.623h7.206c0.894,0,1.617-0.724,1.617-1.617v-4.388
				C255.297,383.009,254.573,382.284,253.68,382.284z"/>
			<rect x="219.593" y="382.284" style="fill:#FAC55D;" width="20.158" height="7.623"/>
			<path style="fill:#E0A022;" d="M255.039,383.03c-0.288-0.447-0.788-0.746-1.359-0.746h-39.56c-0.572,0-1.072,0.299-1.359,0.746
				H255.039z"/>
			<path style="fill:#E0A022;" d="M212.763,389.148c0.284,0.453,0.781,0.759,1.356,0.759h39.56c0.575,0,1.072-0.306,1.356-0.759
				H212.763z"/>
		</g>
		<g>
			<path style="fill:#F1B633;" d="M251.477,382.366h-38.902c-1.075,0-1.946-0.872-1.946-1.946v-3.73
				c0-1.075,0.872-1.946,1.946-1.946h38.902c1.074,0,1.946,0.871,1.946,1.946v3.73C253.424,381.494,252.552,382.366,251.477,382.366
				z"/>
			<path style="fill:#FAC55D;" d="M251.806,374.743h-7.205v7.623h7.205c0.893,0,1.618-0.725,1.618-1.618v-4.388
				C253.424,375.467,252.699,374.743,251.806,374.743z"/>
			<rect x="217.72" y="374.743" style="fill:#FAC55D;" width="20.157" height="7.623"/>
			<path style="fill:#E0A022;" d="M253.165,375.489c-0.287-0.448-0.787-0.746-1.359-0.746h-39.559c-0.572,0-1.072,0.298-1.359,0.746
				H253.165z"/>
			<path style="fill:#E0A022;" d="M210.89,381.607c0.284,0.453,0.781,0.759,1.357,0.759h39.559c0.576,0,1.072-0.306,1.356-0.759
				H210.89z"/>
		</g>
		<g>
			<path style="fill:#F1B633;" d="M253.143,374.824H214.24c-1.075,0-1.946-0.871-1.946-1.946v-3.729
				c0-1.075,0.872-1.947,1.946-1.947h38.902c1.075,0,1.946,0.872,1.946,1.947v3.729
				C255.089,373.953,254.218,374.824,253.143,374.824z"/>
			<path style="fill:#FAC55D;" d="M253.472,367.201h-7.206v7.623h7.206c0.893,0,1.617-0.724,1.617-1.617v-4.388
				C255.089,367.926,254.364,367.201,253.472,367.201z"/>
			<rect x="219.385" y="367.201" style="fill:#FAC55D;" width="20.157" height="7.623"/>
			<path style="fill:#E0A022;" d="M254.83,367.948c-0.287-0.448-0.787-0.747-1.358-0.747h-39.56c-0.572,0-1.072,0.299-1.359,0.747
				H254.83z"/>
			<path style="fill:#E0A022;" d="M212.555,374.065c0.284,0.454,0.781,0.759,1.356,0.759h39.56c0.575,0,1.071-0.305,1.356-0.759
				H212.555z"/>
		</g>
		<g>
			<path style="fill:#F1B633;" d="M255.016,367.283h-38.902c-1.075,0-1.946-0.871-1.946-1.946v-3.73
				c0-1.075,0.871-1.946,1.946-1.946h38.902c1.075,0,1.946,0.871,1.946,1.946v3.73C256.962,366.412,256.091,367.283,255.016,367.283
				z"/>
			<path style="fill:#FAC55D;" d="M255.345,359.66h-7.206v7.623h7.206c0.894,0,1.617-0.725,1.617-1.617v-4.389
				C256.962,360.385,256.238,359.66,255.345,359.66z"/>
			<rect x="221.259" y="359.66" style="fill:#FAC55D;" width="20.157" height="7.623"/>
			<path style="fill:#E0A022;" d="M256.704,360.406c-0.288-0.447-0.788-0.746-1.359-0.746h-39.56c-0.572,0-1.071,0.299-1.359,0.746
				H256.704z"/>
			<path style="fill:#E0A022;" d="M214.429,366.524c0.284,0.453,0.78,0.759,1.356,0.759h39.56c0.575,0,1.072-0.306,1.357-0.759
				H214.429z"/>
		</g>
		<g>
			<path style="fill:#F1B633;" d="M251.27,359.742h-38.902c-1.075,0-1.946-0.872-1.946-1.947v-3.729
				c0-1.075,0.871-1.946,1.946-1.946h38.902c1.074,0,1.946,0.871,1.946,1.946v3.729C253.216,358.87,252.344,359.742,251.27,359.742z
				"/>
			<path style="fill:#FAC55D;" d="M251.598,352.119h-7.205v7.623h7.205c0.894,0,1.618-0.725,1.618-1.618v-4.388
				C253.216,352.843,252.491,352.119,251.598,352.119z"/>
			<rect x="217.512" y="352.119" style="fill:#FAC55D;" width="20.157" height="7.623"/>
			<path style="fill:#E0A022;" d="M252.957,352.865c-0.287-0.448-0.787-0.746-1.359-0.746h-39.56c-0.572,0-1.071,0.298-1.359,0.746
				H252.957z"/>
			<path style="fill:#E0A022;" d="M210.682,358.982c0.285,0.454,0.781,0.76,1.357,0.76h39.56c0.576,0,1.072-0.306,1.356-0.76
				H210.682z"/>
		</g>
		<g>
			<path style="fill:#F1B633;" d="M253.975,352.2h-38.901c-1.075,0-1.947-0.871-1.947-1.946v-3.73c0-1.074,0.872-1.946,1.947-1.946
				h38.901c1.075,0,1.947,0.872,1.947,1.946v3.73C255.922,351.329,255.05,352.2,253.975,352.2z"/>
			<path style="fill:#FAC55D;" d="M254.304,344.577h-7.206v7.623h7.206c0.894,0,1.618-0.724,1.618-1.617v-4.388
				C255.922,345.302,255.197,344.577,254.304,344.577z"/>
			<rect x="220.218" y="344.577" style="fill:#FAC55D;" width="20.157" height="7.623"/>
			<path style="fill:#E0A022;" d="M255.663,345.323c-0.288-0.447-0.787-0.746-1.359-0.746h-39.56c-0.572,0-1.072,0.299-1.359,0.746
				H255.663z"/>
			<path style="fill:#E0A022;" d="M213.388,351.441c0.284,0.453,0.781,0.759,1.356,0.759h39.56c0.576,0,1.072-0.306,1.356-0.759
				H213.388z"/>
		</g>
		<g>
			<path style="fill:#F1B633;" d="M256.889,344.659h-38.902c-1.075,0-1.946-0.872-1.946-1.946v-3.73
				c0-1.075,0.872-1.946,1.946-1.946h38.902c1.075,0,1.947,0.871,1.947,1.946v3.73C258.836,343.787,257.964,344.659,256.889,344.659
				z"/>
			<path style="fill:#FAC55D;" d="M257.218,337.036h-7.206v7.623h7.206c0.893,0,1.617-0.725,1.617-1.618v-4.388
				C258.835,337.76,258.111,337.036,257.218,337.036z"/>
			<rect x="223.132" y="337.036" style="fill:#FAC55D;" width="20.157" height="7.623"/>
			<path style="fill:#E0A022;" d="M258.577,337.782c-0.288-0.448-0.787-0.746-1.359-0.746h-39.56c-0.572,0-1.072,0.298-1.359,0.746
				H258.577z"/>
			<path style="fill:#E0A022;" d="M216.302,343.9c0.284,0.453,0.781,0.759,1.356,0.759h39.56c0.576,0,1.072-0.306,1.356-0.759
				H216.302z"/>
		</g>
		<g>
			<path style="fill:#F1B633;" d="M255.64,337.118h-38.901c-1.075,0-1.947-0.872-1.947-1.947v-3.729
				c0-1.075,0.872-1.947,1.947-1.947h38.901c1.075,0,1.947,0.872,1.947,1.947v3.729C257.587,336.246,256.715,337.118,255.64,337.118
				z"/>
			<path style="fill:#FAC55D;" d="M255.969,329.494h-7.206v7.624h7.206c0.894,0,1.618-0.725,1.618-1.618v-4.388
				C257.587,330.219,256.862,329.494,255.969,329.494z"/>
			<rect x="221.883" y="329.494" style="fill:#FAC55D;" width="20.157" height="7.624"/>
			<path style="fill:#E0A022;" d="M257.328,330.241c-0.287-0.448-0.787-0.747-1.359-0.747h-39.56c-0.572,0-1.071,0.299-1.359,0.747
				H257.328z"/>
			<path style="fill:#E0A022;" d="M215.053,336.358c0.285,0.454,0.781,0.76,1.357,0.76h39.56c0.576,0,1.072-0.306,1.356-0.76
				H215.053z"/>
		</g>
		<g>
			<path style="fill:#F1B633;" d="M252.31,329.576h-38.902c-1.075,0-1.946-0.871-1.946-1.946v-3.73c0-1.075,0.872-1.946,1.946-1.946
				h38.902c1.075,0,1.946,0.871,1.946,1.946v3.73C254.256,328.705,253.385,329.576,252.31,329.576z"/>
			<path style="fill:#FAC55D;" d="M252.639,321.953h-7.206v7.623h7.206c0.894,0,1.617-0.725,1.617-1.617v-4.389
				C254.256,322.678,253.532,321.953,252.639,321.953z"/>
			<rect x="218.553" y="321.953" style="fill:#FAC55D;" width="20.157" height="7.623"/>
			<path style="fill:#E0A022;" d="M253.998,322.699c-0.288-0.447-0.787-0.746-1.359-0.746h-39.56c-0.572,0-1.072,0.299-1.359,0.746
				H253.998z"/>
			<path style="fill:#E0A022;" d="M211.723,328.817c0.284,0.453,0.781,0.759,1.356,0.759h39.56c0.576,0,1.072-0.306,1.356-0.759
				H211.723z"/>
		</g>
		<g>
			<path style="fill:#F1B633;" d="M255.64,321.766h-38.901c-1.075,0-1.947-0.871-1.947-1.946v-3.729
				c0-1.075,0.872-1.947,1.947-1.947h38.901c1.075,0,1.947,0.872,1.947,1.947v3.729C257.587,320.895,256.715,321.766,255.64,321.766
				z"/>
			<path style="fill:#FAC55D;" d="M255.969,314.143h-7.206v7.623h7.206c0.894,0,1.618-0.724,1.618-1.617v-4.388
				C257.587,314.867,256.862,314.143,255.969,314.143z"/>
			<rect x="221.883" y="314.143" style="fill:#FAC55D;" width="20.157" height="7.623"/>
			<path style="fill:#E0A022;" d="M257.328,314.89c-0.287-0.448-0.787-0.747-1.359-0.747h-39.56c-0.572,0-1.071,0.299-1.359,0.747
				H257.328z"/>
			<path style="fill:#E0A022;" d="M215.053,321.007c0.285,0.454,0.781,0.759,1.357,0.759h39.56c0.576,0,1.072-0.305,1.356-0.759
				H215.053z"/>
		</g>
		<g>
			<path style="fill:#F1B633;" d="M252.31,314.225h-38.902c-1.075,0-1.946-0.871-1.946-1.946v-3.73c0-1.075,0.872-1.946,1.946-1.946
				h38.902c1.075,0,1.946,0.871,1.946,1.946v3.73C254.256,313.353,253.385,314.225,252.31,314.225z"/>
			<path style="fill:#FAC55D;" d="M252.639,306.602h-7.206v7.623h7.206c0.894,0,1.617-0.725,1.617-1.617v-4.389
				C254.256,307.326,253.532,306.602,252.639,306.602z"/>
			<rect x="218.553" y="306.602" style="fill:#FAC55D;" width="20.157" height="7.623"/>
			<path style="fill:#E0A022;" d="M253.998,307.348c-0.288-0.447-0.787-0.746-1.359-0.746h-39.56c-0.572,0-1.072,0.299-1.359,0.746
				H253.998z"/>
			<path style="fill:#E0A022;" d="M211.723,313.466c0.284,0.453,0.781,0.759,1.356,0.759h39.56c0.576,0,1.072-0.306,1.356-0.759
				H211.723z"/>
		</g>
	</g>
	<g>
		<g>
			<path style="fill:#F1B633;" d="M347.763,389.907H308.86c-1.074,0-1.946-0.871-1.946-1.946v-3.73c0-1.074,0.872-1.946,1.946-1.946
				h38.902c1.075,0,1.946,0.872,1.946,1.946v3.73C349.709,389.036,348.838,389.907,347.763,389.907z"/>
			<path style="fill:#FAC55D;" d="M348.092,382.284h-7.206v7.623h7.206c0.894,0,1.617-0.724,1.617-1.617v-4.388
				C349.709,383.009,348.985,382.284,348.092,382.284z"/>
			<rect x="314.006" y="382.284" style="fill:#FAC55D;" width="20.157" height="7.623"/>
			<path style="fill:#E0A022;" d="M349.451,383.03c-0.288-0.447-0.788-0.746-1.359-0.746h-39.56c-0.572,0-1.072,0.299-1.359,0.746
				H349.451z"/>
			<path style="fill:#E0A022;" d="M307.176,389.148c0.284,0.453,0.78,0.759,1.356,0.759h39.56c0.575,0,1.072-0.306,1.356-0.759
				H307.176z"/>
		</g>
		<g>
			<path style="fill:#F1B633;" d="M345.89,382.366h-38.902c-1.075,0-1.946-0.872-1.946-1.946v-3.73c0-1.075,0.871-1.946,1.946-1.946
				h38.902c1.074,0,1.946,0.871,1.946,1.946v3.73C347.836,381.494,346.964,382.366,345.89,382.366z"/>
			<path style="fill:#FAC55D;" d="M346.218,374.743h-7.205v7.623h7.205c0.893,0,1.618-0.725,1.618-1.618v-4.388
				C347.836,375.467,347.111,374.743,346.218,374.743z"/>
			<rect x="312.132" y="374.743" style="fill:#FAC55D;" width="20.158" height="7.623"/>
			<path style="fill:#E0A022;" d="M347.577,375.489c-0.287-0.448-0.787-0.746-1.359-0.746h-39.56c-0.571,0-1.071,0.298-1.359,0.746
				H347.577z"/>
			<path style="fill:#E0A022;" d="M305.302,381.607c0.285,0.453,0.781,0.759,1.356,0.759h39.56c0.576,0,1.072-0.306,1.356-0.759
				H305.302z"/>
		</g>
		<g>
			<path style="fill:#F1B633;" d="M347.555,374.824h-38.902c-1.075,0-1.946-0.871-1.946-1.946v-3.729
				c0-1.075,0.871-1.947,1.946-1.947h38.902c1.075,0,1.946,0.872,1.946,1.947v3.729C349.501,373.953,348.63,374.824,347.555,374.824
				z"/>
			<path style="fill:#FAC55D;" d="M347.884,367.201h-7.206v7.623h7.206c0.893,0,1.617-0.724,1.617-1.617v-4.388
				C349.501,367.926,348.776,367.201,347.884,367.201z"/>
			<rect x="313.798" y="367.201" style="fill:#FAC55D;" width="20.157" height="7.623"/>
			<path style="fill:#E0A022;" d="M349.243,367.948c-0.288-0.448-0.788-0.747-1.359-0.747h-39.561c-0.571,0-1.071,0.299-1.358,0.747
				H349.243z"/>
			<path style="fill:#E0A022;" d="M306.967,374.065c0.285,0.454,0.781,0.759,1.356,0.759h39.561c0.575,0,1.071-0.305,1.356-0.759
				H306.967z"/>
		</g>
		<g>
			<path style="fill:#F1B633;" d="M349.428,367.283h-38.902c-1.074,0-1.946-0.871-1.946-1.946v-3.73
				c0-1.075,0.872-1.946,1.946-1.946h38.902c1.075,0,1.946,0.871,1.946,1.946v3.73C351.374,366.412,350.503,367.283,349.428,367.283
				z"/>
			<path style="fill:#FAC55D;" d="M349.757,359.66h-7.206v7.623h7.206c0.894,0,1.617-0.725,1.617-1.617v-4.389
				C351.374,360.385,350.65,359.66,349.757,359.66z"/>
			<rect x="315.671" y="359.66" style="fill:#FAC55D;" width="20.157" height="7.623"/>
			<path style="fill:#E0A022;" d="M351.116,360.406c-0.288-0.447-0.788-0.746-1.359-0.746h-39.56c-0.572,0-1.072,0.299-1.359,0.746
				H351.116z"/>
			<path style="fill:#E0A022;" d="M308.841,366.524c0.284,0.453,0.78,0.759,1.357,0.759h39.56c0.575,0,1.072-0.306,1.356-0.759
				H308.841z"/>
		</g>
		<g>
			<path style="fill:#F1B633;" d="M345.682,359.742h-38.902c-1.075,0-1.946-0.872-1.946-1.947v-3.729
				c0-1.075,0.871-1.946,1.946-1.946h38.902c1.074,0,1.946,0.871,1.946,1.946v3.729C347.628,358.87,346.756,359.742,345.682,359.742
				z"/>
			<path style="fill:#FAC55D;" d="M346.01,352.119h-7.205v7.623h7.205c0.893,0,1.618-0.725,1.618-1.618v-4.388
				C347.628,352.843,346.903,352.119,346.01,352.119z"/>
			<rect x="311.924" y="352.119" style="fill:#FAC55D;" width="20.157" height="7.623"/>
			<path style="fill:#E0A022;" d="M347.369,352.865c-0.287-0.448-0.787-0.746-1.359-0.746h-39.56c-0.571,0-1.071,0.298-1.359,0.746
				H347.369z"/>
			<path style="fill:#E0A022;" d="M305.094,358.982c0.284,0.454,0.781,0.76,1.356,0.76h39.56c0.576,0,1.072-0.306,1.356-0.76
				H305.094z"/>
		</g>
		<g>
			<path style="fill:#F1B633;" d="M348.387,352.2h-38.901c-1.075,0-1.946-0.871-1.946-1.946v-3.73c0-1.074,0.871-1.946,1.946-1.946
				h38.901c1.075,0,1.947,0.872,1.947,1.946v3.73C350.334,351.329,349.462,352.2,348.387,352.2z"/>
			<path style="fill:#FAC55D;" d="M348.716,344.577h-7.205v7.623h7.205c0.894,0,1.618-0.724,1.618-1.617v-4.388
				C350.334,345.302,349.609,344.577,348.716,344.577z"/>
			<rect x="314.63" y="344.577" style="fill:#FAC55D;" width="20.157" height="7.623"/>
			<path style="fill:#E0A022;" d="M350.075,345.323c-0.288-0.447-0.787-0.746-1.359-0.746h-39.56c-0.572,0-1.071,0.299-1.359,0.746
				H350.075z"/>
			<path style="fill:#E0A022;" d="M307.8,351.441c0.284,0.453,0.781,0.759,1.356,0.759h39.56c0.576,0,1.072-0.306,1.357-0.759H307.8
				z"/>
		</g>
	</g>
	<g>
		<path style="opacity:0.32;fill:#998329;" d="M374.645,358.888c7.379,6.428,8.149,17.62,1.721,24.999
			c-6.428,7.378-17.62,8.148-24.999,1.72c-7.378-6.428-8.148-17.62-1.72-24.999C356.075,353.229,367.268,352.459,374.645,358.888z"
			/>
		<path style="fill:#F2CD30;" d="M372.699,359.117c7.524,6.556,8.31,17.97,1.754,25.494c-6.555,7.524-17.969,8.31-25.493,1.754
			c-7.525-6.556-8.311-17.97-1.755-25.494C353.761,353.347,365.175,352.561,372.699,359.117z"/>
		<path style="fill:#EAA00E;" d="M370.093,362.109c5.872,5.115,6.484,14.022,1.369,19.895c-5.116,5.873-14.023,6.485-19.895,1.37
			c-5.872-5.116-6.485-14.023-1.369-19.896C355.313,357.606,364.221,356.993,370.093,362.109z"/>
		<path style="fill:#F1B633;" d="M369.612,363.968c5.515,4.804,6.09,13.169,1.285,18.684c-4.804,5.515-13.169,6.091-18.684,1.286
			c-5.515-4.805-6.091-13.17-1.286-18.685C355.732,359.738,364.098,359.163,369.612,363.968z"/>
		<path style="fill:#FFECCC;" d="M366.345,367.53v-0.189c0-0.412-0.334-0.745-0.745-0.745h-9.603c-0.284,0-0.516,0.23-0.516,0.515
			v1.621c0,0.342,0.276,0.618,0.618,0.618h0.127c1.109,0,1.929,0.162,2.457,0.487c0.309,0.19,0.524,0.458,0.653,0.8h-3.11
			c-0.411,0-0.745,0.333-0.745,0.745v0.298c0,0.411,0.334,0.745,0.745,0.745h3.081c-0.129,0.313-0.33,0.568-0.607,0.763
			c-0.518,0.362-1.319,0.543-2.406,0.543h-0.067c-0.411,0-0.745,0.334-0.745,0.745v1.306c0,0.411,0.334,0.745,0.745,0.745h0.788
			l3.652,5.871c0.137,0.219,0.375,0.352,0.633,0.352h1.987c0.599,0,0.954-0.668,0.617-1.162c-0.875-1.286-2.199-3.255-3.973-5.903
			c0.962-0.422,1.705-1.004,2.229-1.747c0.327-0.463,0.553-0.968,0.676-1.512h2.764c0.411,0,0.745-0.334,0.745-0.745v-0.298
			c0-0.412-0.334-0.745-0.745-0.745h-2.697c-0.109-0.957-0.434-1.744-0.973-2.362h3.67
			C366.011,368.275,366.345,367.941,366.345,367.53z"/>
	</g>
</g>
<g id="DESIGNED_BY_FREEPIK">
	<g>
		<g id="XMLID_319_">
			<g id="XMLID_338_">
				<path id="XMLID_346_" style="fill:#2C2D2D;" d="M260.103,465.465c-0.432,0.443-0.803,0.932-1.107,1.453l-0.465-0.241
					c-0.068-0.297-0.35-0.502-0.66-0.466c-0.33,0.039-0.566,0.339-0.529,0.67c0.039,0.331,0.34,0.567,0.67,0.528
					c0.066-0.007,0.127-0.025,0.184-0.052l0.451,0.234c-0.25,0.554-0.432,1.139-0.539,1.743l0.748,0.132
					c0.229-1.306,0.85-2.507,1.791-3.473L260.103,465.465z"/>
				<path id="XMLID_345_" style="fill:#2C2D2D;" d="M265.592,463.163c-0.172,0-0.342,0.006-0.51,0.017l-0.074-0.626
					c0.188-0.149,0.297-0.389,0.266-0.645c-0.045-0.393-0.402-0.674-0.795-0.628c-0.393,0.046-0.674,0.402-0.627,0.796
					c0.029,0.254,0.189,0.461,0.404,0.564l0.072,0.624c-0.713,0.116-1.402,0.332-2.059,0.646l0.326,0.685
					c0.936-0.447,1.941-0.674,2.996-0.674c0.496,0,0.992,0.053,1.475,0.158l0.16-0.741
					C266.691,463.222,266.143,463.163,265.592,463.163z"/>
				<path id="XMLID_344_" style="fill:#2C2D2D;" d="M272.193,465.71c0.332-0.04,0.566-0.341,0.525-0.672
					c-0.039-0.331-0.34-0.566-0.672-0.525c-0.309,0.038-0.535,0.304-0.529,0.608l-0.416,0.363c-0.418-0.43-0.891-0.813-1.408-1.14
					l-0.404,0.642c1.135,0.715,2.021,1.727,2.564,2.925l0.69-0.313c-0.25-0.554-0.566-1.071-0.941-1.545l0.402-0.351
					C272.064,465.715,272.129,465.719,272.193,465.71z"/>
				<path id="XMLID_343_" style="fill:#2C2D2D;" d="M265.045,473.371c-0.387,0.023-0.775,0.035-1.158,0.035
					c-0.879,0-1.732-0.061-2.478-0.18c-0.391-0.062-0.846-0.154-1.27-0.292c1.047,1.861,3.068,3.125,5.389,3.125
					c2.855,0,5.262-1.916,5.949-4.503c-0.682,0.449-1.506,0.825-2.459,1.122C267.838,473.047,266.463,473.286,265.045,473.371z"/>
				<path id="XMLID_339_" style="fill:#2C2D2D;" d="M265.592,464.68c-3.352,0-6.08,2.666-6.08,5.943
					c0,0.425,0.047,0.849,0.137,1.261c0.674,0.483,2.707,0.891,5.348,0.731c2.881-0.174,5.297-0.958,6.672-2.159
					c-0.004-0.194-0.02-0.39-0.045-0.581C271.244,466.913,268.65,464.68,265.592,464.68z M263.432,471.194
					c-1.02,0-1.85-0.83-1.85-1.85c0-1.021,0.83-1.851,1.85-1.851c1.02,0,1.85,0.83,1.85,1.851
					C265.281,470.364,264.451,471.194,263.432,471.194z M268.17,470.286c-0.75,0-1.361-0.61-1.361-1.36s0.611-1.36,1.361-1.36
					s1.359,0.61,1.359,1.36S268.92,470.286,268.17,470.286z"/>
			</g>
			<path id="XMLID_336_" style="fill:#2C2D2D;" d="M281.596,466.547c-0.295-0.116-0.807-0.31-1.383-0.238
				c-0.551,0.069-0.844,0.341-0.844,1.007v0.866h2.229v1.717h-2.229v5.455h-1.932v-5.455h-1.34v-1.717h1.34v-0.889
				c0-1.68,0.895-2.782,2.568-2.782c0.643,0,1.156,0.121,1.59,0.308V466.547z"/>
			<path id="XMLID_334_" style="fill:#2C2D2D;" d="M286.297,469.878c-0.176-0.029-0.357-0.046-0.525-0.046
				c-0.894,0-1.51,0.548-1.51,1.613v3.908h-1.932v-7.172h1.873v0.784c0.451-0.673,1.139-0.977,2.02-0.977
				c0.414,0,0.848,0.128,1.096,0.337L286.297,469.878z"/>
			<path id="XMLID_331_" style="fill:#2C2D2D;" d="M293.965,471.757c0,0.222-0.016,0.488-0.037,0.651h-5.084
				c0.207,1.036,0.932,1.487,1.842,1.487c0.623,0,1.295-0.252,1.815-0.689l1.133,1.243c-0.814,0.748-1.852,1.089-3.057,1.089
				c-2.199,0-3.725-1.496-3.725-3.753c0-2.258,1.48-3.797,3.627-3.797C292.543,467.989,293.957,469.522,293.965,471.757z
				 M288.852,471.091h3.174c-0.178-0.918-0.732-1.436-1.561-1.436C289.555,469.654,289.021,470.202,288.852,471.091z"/>
			<path id="XMLID_328_" style="fill:#2C2D2D;" d="M301.619,471.757c0,0.222-0.016,0.488-0.037,0.651h-5.086
				c0.207,1.036,0.934,1.487,1.844,1.487c0.621,0,1.295-0.252,1.813-0.689l1.133,1.243c-0.814,0.748-1.85,1.089-3.057,1.089
				c-2.199,0-3.723-1.496-3.723-3.753c0-2.258,1.48-3.797,3.627-3.797C300.197,467.989,301.611,469.522,301.619,471.757z
				 M296.504,471.091h3.176c-0.178-0.918-0.734-1.436-1.563-1.436C297.207,469.654,296.674,470.202,296.504,471.091z"/>
			<path id="XMLID_325_" style="fill:#2C2D2D;" d="M309.965,471.764c0,2.154-1.496,3.775-3.473,3.775
				c-0.961,0-1.643-0.378-2.109-0.933v3.708h-1.924v-10.133h1.887v0.792c0.467-0.585,1.154-0.984,2.139-0.984
				C308.469,467.989,309.965,469.61,309.965,471.764z M304.287,471.764c0,1.133,0.748,1.977,1.844,1.977
				c1.139,0,1.85-0.881,1.85-1.977c0-1.095-0.711-1.976-1.85-1.976C305.035,469.788,304.287,470.632,304.287,471.764z"/>
			<path id="XMLID_322_" style="fill:#2C2D2D;" d="M313.068,465.835c0,0.696-0.541,1.23-1.236,1.23c-0.697,0-1.229-0.533-1.229-1.23
				c0-0.695,0.531-1.243,1.229-1.243C312.527,464.592,313.068,465.14,313.068,465.835z M312.809,475.353h-1.932v-7.172h1.932
				V475.353z"/>
			<path id="XMLID_320_" style="fill:#2C2D2D;" d="M316.031,470.735l2.703-2.554h2.367l-3.479,3.375l3.502,3.797h-2.377
				l-2.717-2.901v2.901H314.1v-10.658h1.932V470.735z"/>
		</g>
		<g>
			<path style="fill:#2C2D2D;" d="M184.412,475.289v-1.055c-0.527,0.718-1.392,1.23-2.388,1.23c-1.846,0-3.149-1.406-3.149-3.706
				c0-2.256,1.289-3.721,3.149-3.721c0.952,0,1.816,0.469,2.388,1.245v-3.765h1.099v9.771H184.412z M184.412,473.37v-3.208
				c-0.395-0.615-1.245-1.143-2.124-1.143c-1.421,0-2.271,1.172-2.271,2.739c0,1.567,0.85,2.725,2.271,2.725
				C183.167,474.483,184.017,473.985,184.412,473.37z"/>
			<path style="fill:#2C2D2D;" d="M186.932,471.744c0-2.051,1.465-3.706,3.486-3.706c2.139,0,3.397,1.67,3.397,3.794v0.278h-5.727
				c0.088,1.333,1.025,2.446,2.549,2.446c0.806,0,1.626-0.322,2.182-0.894l0.527,0.718c-0.703,0.703-1.654,1.084-2.811,1.084
				C188.44,475.465,186.932,473.956,186.932,471.744z M190.403,468.946c-1.509,0-2.256,1.274-2.314,2.358h4.643
				C192.718,470.25,192.015,468.946,190.403,468.946z"/>
			<path style="fill:#2C2D2D;" d="M194.606,474.352l0.571-0.791c0.469,0.542,1.362,1.011,2.329,1.011c1.084,0,1.67-0.513,1.67-1.216
				c0-1.714-4.38-0.659-4.38-3.281c0-1.099,0.952-2.036,2.637-2.036c1.201,0,2.051,0.454,2.622,1.025l-0.513,0.762
				c-0.425-0.513-1.201-0.894-2.109-0.894c-0.967,0-1.567,0.483-1.567,1.113c0,1.553,4.38,0.527,4.38,3.281
				c0,1.186-0.952,2.139-2.783,2.139C196.306,475.465,195.324,475.113,194.606,474.352z"/>
			<path style="fill:#2C2D2D;" d="M201.477,466.471c0-0.41,0.337-0.747,0.732-0.747c0.41,0,0.747,0.337,0.747,0.747
				c0,0.41-0.337,0.732-0.747,0.732C201.813,467.203,201.477,466.881,201.477,466.471z M201.667,475.289v-7.075h1.099v7.075H201.667
				z"/>
			<path style="fill:#2C2D2D;" d="M204.582,477.105l0.556-0.82c0.586,0.703,1.289,0.967,2.3,0.967c1.172,0,2.27-0.571,2.27-2.124
				v-1.011c-0.513,0.718-1.377,1.26-2.373,1.26c-1.846,0-3.15-1.377-3.15-3.662c0-2.271,1.289-3.677,3.15-3.677
				c0.952,0,1.802,0.469,2.373,1.245v-1.069h1.099v6.87c0,2.344-1.641,3.076-3.369,3.076
				C206.236,478.16,205.416,477.925,204.582,477.105z M209.708,473.253v-3.091c-0.381-0.615-1.23-1.143-2.109-1.143
				c-1.421,0-2.27,1.128-2.27,2.695c0,1.553,0.849,2.695,2.27,2.695C208.477,474.41,209.327,473.868,209.708,473.253z"/>
			<path style="fill:#2C2D2D;" d="M217.413,475.289v-4.629c0-1.245-0.63-1.641-1.582-1.641c-0.864,0-1.685,0.527-2.095,1.099v5.171
				h-1.099v-7.075h1.099v1.025c0.498-0.586,1.465-1.201,2.52-1.201c1.48,0,2.256,0.747,2.256,2.285v4.966H217.413z"/>
			<path style="fill:#2C2D2D;" d="M219.932,471.744c0-2.051,1.465-3.706,3.486-3.706c2.139,0,3.398,1.67,3.398,3.794v0.278h-5.727
				c0.088,1.333,1.024,2.446,2.548,2.446c0.806,0,1.626-0.322,2.183-0.894l0.527,0.718c-0.703,0.703-1.655,1.084-2.813,1.084
				C221.441,475.465,219.932,473.956,219.932,471.744z M223.403,468.946c-1.509,0-2.256,1.274-2.313,2.358h4.643
				C225.718,470.25,225.015,468.946,223.403,468.946z"/>
			<path style="fill:#2C2D2D;" d="M233.35,475.289v-1.055c-0.527,0.718-1.392,1.23-2.388,1.23c-1.846,0-3.149-1.406-3.149-3.706
				c0-2.256,1.289-3.721,3.149-3.721c0.952,0,1.816,0.469,2.388,1.245v-3.765h1.099v9.771H233.35z M233.35,473.37v-3.208
				c-0.395-0.615-1.245-1.143-2.124-1.143c-1.421,0-2.271,1.172-2.271,2.739c0,1.567,0.85,2.725,2.271,2.725
				C232.104,474.483,232.954,473.985,233.35,473.37z"/>
			<path style="fill:#2C2D2D;" d="M239.691,475.289v-9.771h1.099v3.765c0.571-0.776,1.421-1.245,2.388-1.245
				c1.846,0,3.149,1.465,3.149,3.721c0,2.3-1.304,3.706-3.149,3.706c-0.996,0-1.86-0.513-2.388-1.23v1.055H239.691z
				 M242.899,474.483c1.436,0,2.285-1.157,2.285-2.725c0-1.567-0.85-2.739-2.285-2.739c-0.864,0-1.729,0.527-2.109,1.143v3.208
				C241.171,473.985,242.035,474.483,242.899,474.483z"/>
			<path style="fill:#2C2D2D;" d="M247.528,477.061c0.161,0.073,0.425,0.117,0.601,0.117c0.483,0,0.806-0.161,1.055-0.747
				l0.469-1.069l-2.959-7.148h1.187l2.358,5.801l2.344-5.801h1.201l-3.545,8.511c-0.425,1.024-1.143,1.421-2.08,1.436
				c-0.234,0-0.601-0.044-0.806-0.104L247.528,477.061z"/>
		</g>
	</g>
</g>
</svg>
