<?xml version="1.0" encoding="utf-8"?>
<!-- Generator: Adobe Illustrator 27.5.0, SVG Export Plug-In . SVG Version: 6.00 Build 0)  -->
<svg version="1.1" id="Layer_1" xmlns="http://www.w3.org/2000/svg" xmlns:xlink="http://www.w3.org/1999/xlink" x="0px" y="0px"
	 viewBox="0 0 288.856 288.852" style="enable-background:new 0 0 288.856 288.852;" xml:space="preserve">
<g>
	<g>
		<path style="fill:#FFFFFF;" d="M151.024,20.413c-72.019,0-130.611,58.59-130.611,130.607c0,72.019,58.592,130.611,130.611,130.611
			c72.019,0,130.61-58.591,130.61-130.611C281.634,79.003,223.043,20.413,151.024,20.413z"/>
		<path style="fill:#F1F1F1;" d="M149.825,19.214c-72.019,0-130.611,58.59-130.611,130.607c0,72.019,58.592,130.611,130.611,130.611
			c72.019,0,130.61-58.592,130.61-130.611C280.435,77.804,221.843,19.214,149.825,19.214z"/>
		<path style="fill:#E2E2E2;" d="M148.626,18.015c-72.019,0-130.611,58.59-130.611,130.607c0,72.019,58.591,130.611,130.611,130.611
			c72.019,0,130.61-58.592,130.61-130.611C279.236,76.605,220.644,18.015,148.626,18.015z"/>
		<path style="fill:#D4D4D4;" d="M147.426,16.816c-72.019,0-130.611,58.59-130.611,130.607c0,72.019,58.591,130.611,130.611,130.611
			c72.019,0,130.61-58.591,130.61-130.611C278.036,75.406,219.445,16.816,147.426,16.816z"/>
		<path style="fill:#C5C5C5;" d="M146.227,15.616c-72.019,0-130.611,58.59-130.611,130.607c0,72.019,58.592,130.611,130.611,130.611
			c72.019,0,130.61-58.592,130.61-130.611C276.837,74.206,218.246,15.616,146.227,15.616z"/>
		<path style="fill:#B7B7B7;" d="M145.028,14.417c-72.019,0-130.611,58.59-130.611,130.607c0,72.019,58.591,130.611,130.611,130.611
			c72.019,0,130.61-58.592,130.61-130.611C275.638,73.007,217.046,14.417,145.028,14.417z"/>
		<path style="fill:#A8A8A8;" d="M143.828,13.218c-72.019,0-130.611,58.59-130.611,130.607c0,72.019,58.592,130.611,130.611,130.611
			c72.019,0,130.61-58.592,130.61-130.611C274.439,71.808,215.847,13.218,143.828,13.218z"/>
		<path style="fill:#9A9A9A;" d="M142.629,12.018c-72.019,0-130.611,58.59-130.611,130.607c0,72.019,58.591,130.611,130.611,130.611
			c72.019,0,130.61-58.592,130.61-130.611C273.239,70.608,214.648,12.018,142.629,12.018z"/>
		<path style="fill:#8B8B8B;" d="M141.43,10.819c-72.019,0-130.611,58.59-130.611,130.607c0,72.019,58.592,130.611,130.611,130.611
			c72.019,0,130.61-58.591,130.61-130.611C272.04,69.409,213.449,10.819,141.43,10.819z"/>
		<path style="fill:#7D7D7D;" d="M140.231,9.62C68.212,9.62,9.62,68.21,9.62,140.227c0,72.019,58.592,130.611,130.611,130.611
			c72.019,0,130.61-58.592,130.61-130.611C270.841,68.21,212.249,9.62,140.231,9.62z"/>
		<path style="fill:#6E6E6E;" d="M139.031,8.421c-72.019,0-130.611,58.59-130.611,130.607c0,72.019,58.591,130.611,130.611,130.611
			c72.019,0,130.61-58.591,130.61-130.611C269.642,67.011,211.05,8.421,139.031,8.421z"/>
		<path style="fill:#606060;" d="M137.832,7.221c-72.019,0-130.611,58.59-130.611,130.607c0,72.019,58.591,130.611,130.611,130.611
			c72.019,0,130.61-58.592,130.61-130.611C268.442,65.811,209.851,7.221,137.832,7.221z"/>
	</g>
	<path style="fill:#FFFFFF;" d="M137.832,7.221c-72.019,0-130.611,58.59-130.611,130.607c0,72.019,58.591,130.611,130.611,130.611
		c72.019,0,130.61-58.592,130.61-130.611C268.442,65.811,209.851,7.221,137.832,7.221z"/>
	<g>
		<g>
			<path style="fill:#F0A559;" d="M255.617,137.828c0,65.049-52.733,117.786-117.785,117.786
				c-65.049,0-117.785-52.737-117.785-117.786c0-65.052,52.737-117.782,117.785-117.782
				C202.884,20.046,255.617,72.776,255.617,137.828z"/>
			<path style="fill:#F6BF5E;" d="M248.535,138.41c0,61.139-49.564,110.702-110.702,110.702S27.133,199.548,27.133,138.41
				S76.693,27.714,137.832,27.714S248.535,77.271,248.535,138.41z"/>
			<g>
				<g>
					<path style="fill:#3D3130;" d="M105.148,105.518c0,6.523-5.284,11.807-11.807,11.807c-6.519,0-11.807-5.284-11.807-11.807
						c0-6.523,5.287-11.807,11.807-11.807C99.864,93.711,105.148,98.995,105.148,105.518z"/>
					<path style="fill:#FFFFFF;" d="M93.552,101.303c0,2.446-1.981,4.426-4.427,4.426c-2.446,0-4.43-1.98-4.43-4.426
						c0-2.446,1.984-4.426,4.43-4.426C91.571,96.877,93.552,98.857,93.552,101.303z"/>
				</g>
				<g>
					<path style="fill:#3D3130;" d="M194.13,105.518c0,6.523-5.284,11.807-11.807,11.807c-6.519,0-11.807-5.284-11.807-11.807
						c0-6.523,5.287-11.807,11.807-11.807C188.846,93.711,194.13,98.995,194.13,105.518z"/>
					<path style="fill:#FFFFFF;" d="M182.534,101.303c0,2.446-1.984,4.426-4.426,4.426c-2.449,0-4.43-1.98-4.43-4.426
						c0-2.446,1.98-4.426,4.43-4.426C180.55,96.877,182.534,98.857,182.534,101.303z"/>
				</g>
			</g>
			<path style="fill:#3D3130;" d="M137.697,227.395c-43.709,0-79.701-28.916-91.689-73.661c-0.541-2.024,0.658-4.106,2.686-4.648
				c2.024-0.545,4.106,0.658,4.644,2.682c11.076,41.333,44.186,68.036,84.36,68.036c40.334,0,73.552-26.703,84.629-68.036
				c0.541-2.024,2.624-3.227,4.644-2.682c2.028,0.541,3.23,2.624,2.686,4.648C217.667,198.479,181.571,227.395,137.697,227.395z"/>
			<g>
				<path style="fill:#F6BF5E;" d="M43.035,93.653c2.002,0.858,4.023,1.672,6.054,2.471c13.548-32.321,41.533-57.083,75.936-66.135
					C88.337,36.312,57.88,60.704,43.035,93.653z"/>
				<path style="fill:#F6BF5E;" d="M39.794,101.521c-2.457,6.81-4.263,13.933-5.345,21.288h7.09c1-6.567,2.576-12.941,4.648-19.09
					C44.06,102.967,41.934,102.226,39.794,101.521z"/>
			</g>
		</g>
		<g>
			<path style="fill:#F79E69;" d="M72.333,122.598c-12.345,0-22.353,5.571-22.353,12.439c0,6.872,10.008,12.443,22.353,12.443
				c12.345,0,22.353-5.571,22.353-12.443C94.686,128.169,84.677,122.598,72.333,122.598z M58.098,136.516
				c-2.035,0-3.688-1.276-3.688-2.849c0-1.574,1.653-2.846,3.688-2.846c2.035,0,3.688,1.272,3.688,2.846
				C61.787,135.241,60.133,136.516,58.098,136.516z"/>
			<path style="fill:#F79E69;" d="M207.703,122.598c-12.344,0-22.349,5.571-22.349,12.439c0,6.872,10.005,12.443,22.349,12.443
				c12.345,0,22.349-5.571,22.349-12.443C230.052,128.169,220.047,122.598,207.703,122.598z M193.469,136.516
				c-2.035,0-3.689-1.276-3.689-2.849c0-1.574,1.654-2.846,3.689-2.846c2.038,0,3.688,1.272,3.688,2.846
				C197.157,135.241,195.507,136.516,193.469,136.516z"/>
		</g>
	</g>
</g>
</svg>
